<svg xmlns="http://www.w3.org/2000/svg" viewBox="0 0 254.02 254.02"><defs><style>.cls-1{fill:#fff;}</style></defs><g id="Layer_2" data-name="Layer 2"><g id="Layer_1-2" data-name="Layer 1"><circle cx="127.01" cy="127.01" r="127.01"/><path class="cls-1" d="M70.36,119.41c-.31-.51-.51-.71-.92-.71a.83.83,0,0,0-.71.41l-16.12,20.8A5.69,5.69,0,0,0,51.39,144v12.95c0,1.23-.72,1.43-1.53,1.43s-1.53-.2-1.53-1.43V88c0-1.22.71-1.43,1.53-1.43s1.53.21,1.53,1.43v46.3c0,.72.2,1.13.71,1.13.31,0,.61-.41.61-.41L89.94,87.19a1.8,1.8,0,0,1,1.12-.62,2,2,0,0,1,1.63,1.53,1.66,1.66,0,0,1-.4,1l-20.1,25.4c-.3.41-.51.61-.51.92a2.86,2.86,0,0,0,.51,1.12l24.17,39.57a1.85,1.85,0,0,1,.31.92c0,.61-1,1.32-1.73,1.32a1.12,1.12,0,0,1-1-.61Z"/><path class="cls-1" d="M111.46,158c-1.23,0-1.74-.51-1.74-1.73V88c0-1.22.72-1.43,1.53-1.43s1.53.21,1.53,1.43v66.19c0,.71.31.92.92.92h31.92a1.43,1.43,0,0,1,0,2.85Z"/><path class="cls-1" d="M190,158H161.74c-1.23,0-1.74-.51-1.74-1.73V88.71c0-1.22.51-1.73,1.74-1.73h26.51c10.82,0,19.28,6.12,19.28,18.46,0,7-2.86,12.55-7.55,15.71-.3.2-1,.51-1,.91s.72.62,1.13.82c6.62,2.86,9.48,8.36,9.48,16.73C209.57,150.72,201.11,158,190,158ZM163.06,120c0,.82.31.92.92.92h25.8c8.06,0,14.49-4.89,14.49-15.5,0-10.4-6.94-15.6-16-15.6H164c-.61,0-.92.2-.92.91ZM190,155.11c9.28,0,16.32-6.22,16.32-15.5,0-10.2-5.41-15.81-17-15.81H164c-.71,0-.92.2-.92.92v29.47c0,.71.31.92.92.92Z"/></g></g></svg>