<svg xmlns="http://www.w3.org/2000/svg" viewBox="0 0 364.33 364.33"><defs><style>.cls-1{fill:none;stroke:#fff;stroke-miterlimit:10;stroke-width:5.21px;}</style></defs><g id="Layer_2" data-name="Layer 2"><g id="Layer_2-2" data-name="Layer 2"><circle cx="182.17" cy="182.17" r="182.17"/><path class="cls-1" d="M281.21,184.46l11-42.73a21,21,0,0,0-5.49-20.12l-44-44a21,21,0,0,0-20.12-5.5l-42.72,11a21.09,21.09,0,0,0-9.62,5.5L77.58,181.3a21,21,0,0,0,0,29.74l75.72,75.71a21,21,0,0,0,29.74,0l92.68-92.68A20.86,20.86,0,0,0,281.21,184.46Zm-55.12-46.22a13.3,13.3,0,1,1,18.81,0A13.29,13.29,0,0,1,226.09,138.24Z"/></g></g></svg>