<svg xmlns="http://www.w3.org/2000/svg" viewBox="0 0 254.02 254.02"><defs><style>.cls-1{fill:#fff;}</style></defs><g id="Layer_2" data-name="Layer 2"><g id="Layer_1-2" data-name="Layer 1"><circle cx="127.01" cy="127.01" r="127.01"/><path class="cls-1" d="M164.24,50.56l39.22,39.22-9.92,38.41-74,74.05-67.71-67.7,74.06-74.06,38.4-9.92M172,93.23a11.25,11.25,0,1,0-7.95-3.29A11.2,11.2,0,0,0,172,93.23m-6.58-47.14L123.77,56.86,46.09,134.54l73.4,73.39,77.68-77.68,10.76-41.69L165.46,46.09ZM172,89.21a7.23,7.23,0,1,1,5.11-2.12A7.21,7.21,0,0,1,172,89.21Z"/></g></g></svg>