<svg xmlns="http://www.w3.org/2000/svg" xmlns:xlink="http://www.w3.org/1999/xlink" viewBox="0 0 226.68 226.69"><defs><style>.cls-1{fill:url(#linear-gradient);}.cls-2{fill:url(#linear-gradient-2);}.cls-3{fill:url(#linear-gradient-3);}</style><linearGradient id="linear-gradient" x1="-45.61" y1="113.35" x2="244.1" y2="113.35" gradientUnits="userSpaceOnUse"><stop offset="0" stop-color="#03e1ff"/><stop offset="0.5" stop-color="#00ffa3"/><stop offset="0.86" stop-color="#dc1fff"/></linearGradient><linearGradient id="linear-gradient-2" x1="-45.61" y1="60.01" x2="244.1" y2="60.01" xlink:href="#linear-gradient"/><linearGradient id="linear-gradient-3" x1="-45.61" y1="113.35" x2="244.1" y2="113.35" xlink:href="#linear-gradient"/></defs><g id="Layer_2" data-name="Layer 2"><g id="Layer_3" data-name="Layer 3"><path class="cls-1" d="M219.77,50.94l-44-44A23.73,23.73,0,0,0,153.12.74l-42.72,11a23.39,23.39,0,0,0-5.82,2.36,23.65,23.65,0,0,0-5,3.81L6.91,110.63a23.67,23.67,0,0,0,0,33.42l75.72,75.72a23.65,23.65,0,0,0,33.43,0l92.68-92.69a23.58,23.58,0,0,0,6.17-10.8l11-42.72h0A23.71,23.71,0,0,0,219.77,50.94Zm1.13,21.31-11,42.73a18.4,18.4,0,0,1-4.81,8.42l-92.68,92.69a18.46,18.46,0,0,1-26.07,0L10.59,140.37a18.46,18.46,0,0,1,0-26.06l92.69-92.69a18.31,18.31,0,0,1,8.42-4.81l42.72-11a18.5,18.5,0,0,1,17.64,4.81l44,44A18.48,18.48,0,0,1,220.9,72.25Z"/><path class="cls-2" d="M177.92,48.76a15.91,15.91,0,0,0-22.5,22.5h0a15.91,15.91,0,1,0,22.49-22.5Zm-3.68,18.81a10.7,10.7,0,1,1,0-15.13A10.73,10.73,0,0,1,174.24,67.57Z"/><path class="cls-3" d="M115,113.35,137.45,83a1.35,1.35,0,0,0-2.17-1.6l-21.94,29.7L91.41,81.37A1.35,1.35,0,0,0,89.23,83l22.43,30.38L89.23,143.72a1.36,1.36,0,0,0,.29,1.89,1.39,1.39,0,0,0,.8.26,1.36,1.36,0,0,0,1.09-.55l21.93-29.7,21.94,29.7a1.33,1.33,0,0,0,1.08.55,1.39,1.39,0,0,0,.8-.26,1.36,1.36,0,0,0,.29-1.89Z"/></g></g></svg>